<?xml version="1.0" standalone="no"?>
<!DOCTYPE svg PUBLIC "-//W3C//DTD SVG 20010904//EN"
 "http://www.w3.org/TR/2001/REC-SVG-20010904/DTD/svg10.dtd">
<svg version="1.0" xmlns="http://www.w3.org/2000/svg"
 width="512.000000pt" height="512.000000pt" viewBox="0 0 512.000000 512.000000"
 preserveAspectRatio="xMidYMid meet">

<g transform="translate(0.000000,512.000000) scale(0.100000,-0.100000)"
fill="#000000" stroke="none">
<path d="M4590 5005 c-30 -13 -247 -94 -482 -181 l-427 -158 6 -31 c18 -99 87
-165 174 -165 24 0 96 14 159 30 63 17 118 30 122 30 4 0 -16 -37 -43 -81 -28
-45 -90 -160 -137 -256 -71 -143 -89 -172 -97 -158 -176 300 -385 502 -650
630 -451 216 -967 213 -1393 -10 -392 -205 -665 -564 -764 -1006 -31 -138 -33
-426 -5 -559 30 -140 84 -287 158 -430 l70 -134 -20 -156 c-40 -304 -61 -705
-40 -777 17 -61 89 -137 144 -152 80 -22 109 -15 294 70 97 45 181 83 188 86
24 10 250 -406 357 -657 77 -181 140 -353 186 -510 23 -80 43 -151 46 -157 2
-9 31 -13 96 -13 l94 0 43 152 c136 483 330 875 768 1551 225 348 315 501 413
702 94 192 120 260 151 395 25 109 36 346 20 459 l-11 83 34 39 c18 22 85 141
150 267 116 228 231 423 252 429 14 5 19 -22 39 -212 9 -82 21 -163 27 -178 6
-16 33 -47 60 -70 28 -23 56 -54 64 -69 8 -15 27 -34 43 -43 39 -19 41 -12 41
128 0 171 16 268 92 567 51 202 68 286 65 318 -5 44 -63 142 -127 216 -39 44
-76 46 -160 11z m-1796 -310 c340 -62 662 -259 858 -526 64 -86 158 -246 158
-268 0 -24 -92 -172 -104 -168 -6 3 -56 32 -110 65 -55 34 -135 74 -180 89
-74 26 -93 28 -226 28 -128 0 -150 -3 -185 -21 -97 -51 -140 -163 -245 -640
-74 -339 -152 -598 -210 -699 l-32 -56 -51 44 c-89 75 -160 180 -290 426 -68
130 -134 257 -146 282 -32 69 -85 125 -148 156 -48 23 -74 28 -153 31 -187 8
-231 -24 -304 -222 -41 -113 -57 -178 -109 -456 l-13 -65 -46 105 c-91 208
-122 350 -121 555 0 166 20 288 69 435 129 385 454 715 835 848 81 29 239 66
319 76 72 9 348 -3 434 -19z m558 -1002 c165 -105 272 -137 447 -131 l110 3 8
-55 c12 -92 6 -290 -11 -384 -27 -140 -59 -228 -154 -421 -106 -215 -176 -335
-375 -640 -449 -688 -676 -1144 -812 -1633 l-31 -112 -42 142 c-83 277 -199
558 -349 848 -103 199 -215 385 -425 709 l-159 244 11 76 c28 193 118 654 146
744 13 43 38 10 123 -167 49 -102 112 -219 141 -260 144 -208 341 -316 576
-316 301 0 375 89 504 603 38 150 92 371 121 492 46 194 80 305 94 305 3 0 37
-21 77 -47z m-1739 -1706 c32 -48 57 -91 57 -95 0 -7 -134 -102 -143 -102 -6
0 0 163 9 249 3 29 9 49 13 45 5 -5 33 -49 64 -97z"/>
</g>
</svg>
